#N canvas 827 239 527 327 12;
#X text 36 20 This patch is meant to provide helper tooling for prototyping and testing. The actual reverb implementation should be done in a subpatch.;
#X obj 619 519 out~;
#X obj 79 79 play.file~ Low-Timpani.wav;
#X obj 47 91 bng 25 250 50 0 empty empty empty 17 7 0 10 #e4e4e4 #5a5a5a #5a5a5a;
#X obj 47 142 bng 25 250 50 0 empty empty empty 17 7 0 10 #e4e4e4 #5a5a5a #5a5a5a;
#X obj 79 133 play.file~ High-Timpani.wav;
#X obj 79 353 play.file~ Casio-MT-600-8-Beat-1.wav 0 1;
#X obj 79 410 play.file~ Ensoniq-ZR-76-06-BreakBt-90.wav 0 1;
#X obj 47 253 bng 25 250 50 0 empty empty empty 17 7 0 10 #e4e4e4 #5a5a5a #5a5a5a;
#X obj 79 244 play.file~ Korg-TR-Rack-Standard-Kit-Snare-Drum-2.wav;
#X obj 47 198 bng 25 250 50 0 empty empty empty 17 7 0 10 #e4e4e4 #5a5a5a #5a5a5a;
#X obj 79 189 play.file~ Dry-Kick.wav;
#X obj 47 307 bng 25 250 50 0 empty empty empty 17 7 0 10 #e4e4e4 #5a5a5a #5a5a5a;
#X obj 79 298 play.file~ Closed-Hi-Hat-2.wav;
#X obj 79 523 adc~;
#X obj 47 476 tgl 25 0 empty empty empty 17 7 0 10 #e4e4e4 #5a5a5a #5a5a5a 0 1;
#N canvas 0 50 450 300 random_saw 1;
#X obj 118 296 *~;
#X obj 101 234 mtof;
#X obj 101 129 bng 25 250 50 0 empty empty empty 17 7 0 10 #e4e4e4 #5a5a5a #5a5a5a;
#X obj 169 234 sig~;
#X obj 198 196 tgl 25 0 empty empty empty 17 7 0 10 #e4e4e4 #5a5a5a #5a5a5a 0 1;
#X obj 101 178 drunk 24 8;
#X obj 118 357 outlet~;
#X obj 101 75 inlet;
#X obj 118 326 *~ 0.5;
#X obj 101 261 bl.saw~;
#X obj 198 155 delay 300;
#X obj 101 102 metro 1000;
#X obj 169 261 asr~ 100 600;
#X obj 101 206 + 40;
#X connect 0 0 8 0 empty;
#X connect 1 0 9 0 empty;
#X connect 2 0 4 0 empty;
#X connect 2 0 5 0 empty;
#X connect 2 0 10 0 empty;
#X connect 3 0 12 0 empty;
#X connect 4 0 3 0 empty;
#X connect 5 0 13 0 empty;
#X connect 7 0 11 0 empty;
#X connect 8 0 6 0 empty;
#X connect 9 0 0 0 empty;
#X connect 10 0 4 0 empty;
#X connect 11 0 2 0 empty;
#X connect 12 0 0 1 empty;
#X connect 13 0 1 0 empty;
#X restore 79 464 pd random_saw;
#X f 15;
#X obj 47 364 tgl 25 0 empty empty empty 17 7 0 10 #e4e4e4 #5a5a5a #5a5a5a 0 1;
#X obj 47 420 tgl 25 0 empty empty empty 17 7 0 10 #e4e4e4 #5a5a5a #5a5a5a 0 1;
#X obj 79 107 throw~ \$0-L;
#X obj 172 107 throw~ \$0-R;
#X obj 79 160 throw~ \$0-L;
#X obj 173 160 throw~ \$0-R;
#X obj 79 216 throw~ \$0-L;
#X obj 173 216 throw~ \$0-R;
#X obj 79 271 throw~ \$0-L;
#X obj 175 271 throw~ \$0-R;
#X obj 79 325 throw~ \$0-L;
#X obj 175 325 throw~ \$0-R;
#X obj 79 380 throw~ \$0-L;
#X obj 175 380 throw~ \$0-R;
#X obj 79 437 throw~ \$0-L;
#X obj 174 437 throw~ \$0-R;
#X obj 79 494 throw~ \$0-L;
#X obj 173 494 throw~ \$0-R;
#X obj 79 551 throw~ \$0-L;
#X obj 173 551 throw~ \$0-R;
#X obj 619 99 catch~ \$0-L;
#X obj 709 99 catch~ \$0-R;
#X connect 2 0 19 0 empty;
#X connect 2 1 20 0 empty;
#X connect 3 0 2 0 empty;
#X connect 4 0 5 0 empty;
#X connect 5 0 21 0 empty;
#X connect 5 1 22 0 empty;
#X connect 6 0 29 0 empty;
#X connect 6 1 30 0 empty;
#X connect 7 0 31 0 empty;
#X connect 7 1 32 0 empty;
#X connect 8 0 9 0 empty;
#X connect 9 0 25 0 empty;
#X connect 9 1 26 0 empty;
#X connect 10 0 11 0 empty;
#X connect 11 0 23 0 empty;
#X connect 11 1 24 0 empty;
#X connect 12 0 13 0 empty;
#X connect 13 0 27 0 empty;
#X connect 13 1 28 0 empty;
#X connect 14 0 35 0 empty;
#X connect 14 1 36 0 empty;
#X connect 15 0 16 0 empty;
#X connect 16 0 33 0 empty;
#X connect 16 0 34 0 empty;
#X connect 17 0 6 0 empty;
#X connect 18 0 7 0 empty;
