#N canvas 827 239 527 327 12;
#X obj 409 579 out~;
#X obj 79 59 play.file~ Low-Timpani.wav;
#X obj 47 71 bng 25 250 50 0 empty empty empty 17 7 0 10 #e4e4e4 #5a5a5a #5a5a5a;
#X obj 47 122 bng 25 250 50 0 empty empty empty 17 7 0 10 #e4e4e4 #5a5a5a #5a5a5a;
#X obj 79 113 play.file~ High-Timpani.wav;
#X obj 79 333 play.file~ Casio-MT-600-8-Beat-1.wav 0 1;
#X obj 79 390 play.file~ Ensoniq-ZR-76-06-BreakBt-90.wav 0 1;
#X obj 47 233 bng 25 250 50 0 empty empty empty 17 7 0 10 #e4e4e4 #5a5a5a #5a5a5a;
#X obj 79 224 play.file~ Korg-TR-Rack-Standard-Kit-Snare-Drum-2.wav;
#X obj 47 178 bng 25 250 50 0 empty empty empty 17 7 0 10 #e4e4e4 #5a5a5a #5a5a5a;
#X obj 79 169 play.file~ Dry-Kick.wav;
#X obj 47 287 bng 25 250 50 0 empty empty empty 17 7 0 10 #e4e4e4 #5a5a5a #5a5a5a;
#X obj 79 278 play.file~ Closed-Hi-Hat-2.wav;
#X obj 79 503 adc~;
#X obj 47 456 tgl 25 0 empty empty empty 17 7 0 10 #e4e4e4 #5a5a5a #5a5a5a 0 1;
#N canvas 0 50 450 300 random_saw 1;
#X obj 118 296 *~;
#X obj 101 234 mtof;
#X obj 101 129 bng 25 250 50 0 empty empty empty 17 7 0 10 #e4e4e4 #5a5a5a #5a5a5a;
#X obj 169 234 sig~;
#X obj 198 196 tgl 25 0 empty empty empty 17 7 0 10 #e4e4e4 #5a5a5a #5a5a5a 0 1;
#X obj 101 178 drunk 24 8;
#X obj 118 357 outlet~;
#X obj 101 75 inlet;
#X obj 118 326 *~ 0.5;
#X obj 101 261 bl.saw~;
#X obj 198 155 delay 300;
#X obj 101 102 metro 1000;
#X obj 169 261 asr~ 100 600;
#X obj 101 206 + 40;
#X connect 0 0 8 0 empty;
#X connect 1 0 9 0 empty;
#X connect 2 0 4 0 empty;
#X connect 2 0 5 0 empty;
#X connect 2 0 10 0 empty;
#X connect 3 0 12 0 empty;
#X connect 4 0 3 0 empty;
#X connect 5 0 13 0 empty;
#X connect 7 0 11 0 empty;
#X connect 8 0 6 0 empty;
#X connect 9 0 0 0 empty;
#X connect 10 0 4 0 empty;
#X connect 11 0 2 0 empty;
#X connect 12 0 0 1 empty;
#X connect 13 0 1 0 empty;
#X restore 79 444 pd random_saw;
#X f 25;
#X obj 47 344 tgl 25 0 empty empty empty 17 7 0 10 #e4e4e4 #5a5a5a #5a5a5a 0 1;
#X obj 47 400 tgl 25 0 empty empty empty 17 7 0 10 #e4e4e4 #5a5a5a #5a5a5a 0 1;
#X obj 79 87 throw~ \$0-L;
#X obj 172 87 throw~ \$0-R;
#X obj 79 140 throw~ \$0-L;
#X obj 173 140 throw~ \$0-R;
#X obj 79 196 throw~ \$0-L;
#X obj 173 196 throw~ \$0-R;
#X obj 79 251 throw~ \$0-L;
#X obj 175 251 throw~ \$0-R;
#X obj 79 305 throw~ \$0-L;
#X obj 175 305 throw~ \$0-R;
#X obj 79 360 throw~ \$0-L;
#X obj 175 360 throw~ \$0-R;
#X obj 79 417 throw~ \$0-L;
#X obj 174 417 throw~ \$0-R;
#X obj 79 474 throw~ \$0-L;
#X obj 173 474 throw~ \$0-R;
#X obj 79 531 throw~ \$0-L;
#X obj 173 531 throw~ \$0-R;
#X obj 529 89 catch~ \$0-L;
#X obj 629 89 catch~ \$0-R;
#X obj 752 89 hsl 128 17 0 1 0 0 empty empty Wet -2 -8 0 10 #191919 #ffffff #ffffff 0 1;
#X obj 769 339 +~;
#X obj 429 539 *~;
#X obj 499 539 *~;
#X text 29 8 Schroeder JCREV based on https://ccrma.stanford.edu/~jos/pasp/Example_Schroeder_Reverberators.html, f 93;
#X obj 769 369 delwrite~ \$0-delay 60;
#X obj 849 399 delread~ \$0-delay 46;
#X obj 699 399 delread~ \$0-delay 41;
#X obj 529 149 apf~ 42.04 -0.7 0.7;
#X obj 529 179 apf~ 13.48 -0.7 0.7;
#X obj 529 209 apf~ 4.52 -0.7 0.7;
#X obj 529 279 ffcf~ 191.96 0.742;
#X obj 659 279 ffcf~ 199.96 0.733;
#X obj 789 279 ffcf~ 215.96 0.715;
#X obj 919 279 ffcf~ 232.04 0.697;
#X connect 1 0 18 0 empty;
#X connect 1 1 19 0 empty;
#X connect 2 0 1 0 empty;
#X connect 3 0 4 0 empty;
#X connect 4 0 20 0 empty;
#X connect 4 1 21 0 empty;
#X connect 5 0 28 0 empty;
#X connect 5 1 29 0 empty;
#X connect 6 0 30 0 empty;
#X connect 6 1 31 0 empty;
#X connect 7 0 8 0 empty;
#X connect 8 0 24 0 empty;
#X connect 8 1 25 0 empty;
#X connect 9 0 10 0 empty;
#X connect 10 0 22 0 empty;
#X connect 10 1 23 0 empty;
#X connect 11 0 12 0 empty;
#X connect 12 0 26 0 empty;
#X connect 12 1 27 0 empty;
#X connect 13 0 34 0 empty;
#X connect 13 1 35 0 empty;
#X connect 14 0 15 0 empty;
#X connect 15 0 32 0 empty;
#X connect 15 0 33 0 empty;
#X connect 16 0 5 0 empty;
#X connect 17 0 6 0 empty;
#X connect 36 0 0 0 empty;
#X connect 36 0 46 0 empty;
#X connect 37 0 0 1 empty;
#X connect 37 0 46 0 empty;
#X connect 38 0 40 1 empty;
#X connect 38 0 41 1 empty;
#X connect 39 0 43 0 empty;
#X connect 40 0 0 0 empty;
#X connect 41 0 0 1 empty;
#X connect 44 0 41 0 empty;
#X connect 45 0 40 0 empty;
#X connect 46 0 47 0 empty;
#X connect 47 0 48 0 empty;
#X connect 48 0 49 0 empty;
#X connect 48 0 50 0 empty;
#X connect 48 0 51 0 empty;
#X connect 48 0 52 0 empty;
#X connect 49 0 39 0 empty;
#X connect 50 0 39 0 empty;
#X connect 51 0 39 0 empty;
#X connect 52 0 39 0 empty;
