#N canvas 827 239 527 327 12;
#X obj 499 549 out~;
#X obj 79 59 play.file~ Low-Timpani.wav;
#X obj 47 71 bng 25 250 50 0 empty empty empty 17 7 0 10 #e4e4e4 #5a5a5a #5a5a5a;
#X obj 47 122 bng 25 250 50 0 empty empty empty 17 7 0 10 #e4e4e4 #5a5a5a #5a5a5a;
#X obj 79 113 play.file~ High-Timpani.wav;
#X obj 79 333 play.file~ Casio-MT-600-8-Beat-1.wav 0 1;
#X obj 79 390 play.file~ Ensoniq-ZR-76-06-BreakBt-90.wav 0 1;
#X obj 47 233 bng 25 250 50 0 empty empty empty 17 7 0 10 #e4e4e4 #5a5a5a #5a5a5a;
#X obj 79 224 play.file~ Korg-TR-Rack-Standard-Kit-Snare-Drum-2.wav;
#X obj 47 178 bng 25 250 50 0 empty empty empty 17 7 0 10 #e4e4e4 #5a5a5a #5a5a5a;
#X obj 79 169 play.file~ Dry-Kick.wav;
#X obj 47 287 bng 25 250 50 0 empty empty empty 17 7 0 10 #e4e4e4 #5a5a5a #5a5a5a;
#X obj 79 278 play.file~ Closed-Hi-Hat-2.wav;
#X obj 79 503 adc~;
#X obj 47 456 tgl 25 0 empty empty empty 17 7 0 10 #e4e4e4 #5a5a5a #5a5a5a 0 1;
#N canvas 0 50 450 300 random_saw 1;
#X obj 118 296 *~;
#X obj 101 234 mtof;
#X obj 101 129 bng 25 250 50 0 empty empty empty 17 7 0 10 #e4e4e4 #5a5a5a #5a5a5a;
#X obj 169 234 sig~;
#X obj 198 196 tgl 25 0 empty empty empty 17 7 0 10 #e4e4e4 #5a5a5a #5a5a5a 0 1;
#X obj 101 178 drunk 24 8;
#X obj 118 357 outlet~;
#X obj 101 75 inlet;
#X obj 118 326 *~ 0.5;
#X obj 101 261 bl.saw~;
#X obj 198 155 delay 300;
#X obj 101 102 metro 1000;
#X obj 169 261 asr~ 100 600;
#X obj 101 206 + 40;
#X connect 0 0 8 0 empty;
#X connect 1 0 9 0 empty;
#X connect 2 0 4 0 empty;
#X connect 2 0 5 0 empty;
#X connect 2 0 10 0 empty;
#X connect 3 0 12 0 empty;
#X connect 4 0 3 0 empty;
#X connect 5 0 13 0 empty;
#X connect 7 0 11 0 empty;
#X connect 8 0 6 0 empty;
#X connect 9 0 0 0 empty;
#X connect 10 0 4 0 empty;
#X connect 11 0 2 0 empty;
#X connect 12 0 0 1 empty;
#X connect 13 0 1 0 empty;
#X restore 79 444 pd random_saw;
#X f 25;
#X obj 47 344 tgl 25 0 empty empty empty 17 7 0 10 #e4e4e4 #5a5a5a #5a5a5a 0 1;
#X obj 47 400 tgl 25 0 empty empty empty 17 7 0 10 #e4e4e4 #5a5a5a #5a5a5a 0 1;
#X obj 79 87 throw~ \$0-L;
#X obj 172 87 throw~ \$0-R;
#X obj 79 140 throw~ \$0-L;
#X obj 173 140 throw~ \$0-R;
#X obj 79 196 throw~ \$0-L;
#X obj 173 196 throw~ \$0-R;
#X obj 79 251 throw~ \$0-L;
#X obj 175 251 throw~ \$0-R;
#X obj 79 305 throw~ \$0-L;
#X obj 175 305 throw~ \$0-R;
#X obj 79 360 throw~ \$0-L;
#X obj 175 360 throw~ \$0-R;
#X obj 79 417 throw~ \$0-L;
#X obj 174 417 throw~ \$0-R;
#X obj 79 474 throw~ \$0-L;
#X obj 173 474 throw~ \$0-R;
#X obj 79 531 throw~ \$0-L;
#X obj 173 531 throw~ \$0-R;
#X obj 479 349 catch~ \$0-L;
#X obj 579 349 catch~ \$0-R;
#X obj 552 129 hsl 128 21 0 1 0 0 \$0-wet-s empty Wet 138 10 0 15 #191919 #ffffff #ffffff 0 1;
#X obj 519 509 *~;
#X obj 589 509 *~;
#X obj 552 219 hsl 128 21 0 4 0 0 \$0-sspread-s empty Stereo\ spread 138 10 0 15 #191919 #ffffff #ffffff 0 1;
#X obj 552 159 hsl 128 21 0 0.98 0 0 \$0-reflectivity-s empty Reflectivity 138 10 0 15 #191919 #ffffff #ffffff 0 1;
#X obj 552 249 hsl 128 21 0.5 1 0 0 \$0-sseparation-s empty Stereo\ separation 138 10 0 15 #191919 #ffffff #ffffff 0 1;
#X obj 552 189 hsl 128 21 0.001 1 1 0 \$0-dampening-s empty Dampening 138 10 0 15 #191919 #ffffff #ffffff 0 1;
#X msg 499 129 0.5;
#X msg 489 159 0.84;
#X obj 449 29 loadbang;
#X obj 449 89 bng 25 250 50 0 empty empty empty 17 7 0 10 #191919 #ffffff #ffffff;
#X msg 499 189 0.2;
#X msg 509 249 1;
#X msg 489 219 0.92;
#X obj 619 469 r \$0-wet-s;
#X obj 467 389 s~ \$0-rev-in-L;
#X obj 599 389 s~ \$0-rev-in-R;
#X obj 459 429 r~ \$0-rev-out-L;
#X obj 599 429 r~ \$0-rev-out-R;
#X text 29 8 Freeverb https://ccrma.stanford.edu/~jos/pasp/Freeverb.html, f 93;
#X obj 1499 49 * 22000;
#X obj 1499 19 r \$0-dampening-s;
#X obj 889 399 lbcf~ 200;
#X obj 969 399 lbcf~ 200;
#X obj 1049 399 lbcf~ 200;
#X obj 1129 399 lbcf~ 200;
#X obj 1209 399 lbcf~ 200;
#X obj 1289 399 lbcf~ 200;
#X obj 1369 399 lbcf~ 200;
#X obj 1449 399 lbcf~ 200;
#X obj 1369 19 r \$0-reflectivity-s;
#X obj 829 29 loadbang;
#X msg 819 129 62.28;
#X msg 879 129 64.68;
#X msg 939 129 59.64;
#X msg 999 129 56.88;
#X msg 1059 129 51.08;
#X msg 1119 129 54.24;
#X msg 1179 129 47.52;
#X msg 1239 129 44.64;
#X obj 829 59 bng 25 250 50 0 empty empty empty 17 7 0 10 #191919 #ffffff #ffffff;
#X obj 879 469 apf~ 9 1 -0.5;
#X obj 1299 859 s~ \$0-rev-out-L;
#X obj 879 498 apf~ 22.24 1 -0.5;
#X obj 879 529 apf~ 17.64 1 -0.5;
#X obj 879 559 apf~ 13.64 1 -0.5;
#X obj 879 609 /~ 8;
#X obj 2349 49 * 22000;
#X obj 2349 19 r \$0-dampening-s;
#X obj 1739 399 lbcf~ 200;
#X obj 1819 399 lbcf~ 200;
#X obj 1899 399 lbcf~ 200;
#X obj 1979 399 lbcf~ 200;
#X obj 2059 399 lbcf~ 200;
#X obj 2139 399 lbcf~ 200;
#X obj 2219 399 lbcf~ 200;
#X obj 2299 399 lbcf~ 200;
#X obj 2219 19 r \$0-reflectivity-s;
#X obj 1679 29 loadbang;
#X msg 1669 129 62.28;
#X msg 1729 129 64.68;
#X msg 1789 129 59.64;
#X msg 1849 129 56.88;
#X msg 1909 129 51.08;
#X msg 1969 129 54.24;
#X msg 2029 129 47.52;
#X msg 2089 129 44.64;
#X obj 1679 59 bng 25 250 50 0 empty empty empty 17 7 0 10 #191919 #ffffff #ffffff;
#X obj 1729 469 apf~ 9 1 -0.5;
#X obj 1729 498 apf~ 22.24 1 -0.5;
#X obj 1729 529 apf~ 17.64 1 -0.5;
#X obj 1729 559 apf~ 13.64 1 -0.5;
#X obj 1729 609 /~ 8;
#X obj 1419 859 s~ \$0-rev-out-R;
#X obj 1659 159 +;
#X obj 1719 159 +;
#X obj 1779 159 +;
#X obj 1839 159 +;
#X obj 1899 159 +;
#X obj 1959 159 +;
#X obj 2019 159 +;
#X obj 2079 159 +;
#X obj 2099 19 r \$0-sspread-s;
#X obj 1629 389 loadbang;
#X obj 1629 419 bng 25 250 50 0 empty empty empty 17 7 0 10 #191919 #ffffff #ffffff;
#X msg 1649 469 9;
#X obj 1679 469 +;
#X obj 1679 499 +;
#X msg 1619 499 22.24;
#X obj 1679 529 +;
#X msg 1619 529 17.64;
#X obj 1679 559 +;
#X msg 1619 559 13.64;
#X obj 1439 669 r \$0-sseparation-s;
#X obj 1459 699 expr 1 - $f1;
#X obj 1299 819 *~;
#X obj 1419 819 *~;
#X obj 1469 819 *~;
#X obj 1349 819 *~;
#X obj 1529 459 r \$0-sspread-s;
#X obj 1039 179 r~ \$0-rev-in-R;
#X obj 929 209 +~;
#X obj 929 179 r~ \$0-rev-in-L;
#X obj 1889 199 r~ \$0-rev-in-R;
#X obj 1779 199 r~ \$0-rev-in-L;
#X obj 1779 229 +~;
#X obj 449 59 delay 5;
#X connect 1 0 18 0 empty;
#X connect 1 1 19 0 empty;
#X connect 2 0 1 0 empty;
#X connect 3 0 4 0 empty;
#X connect 4 0 20 0 empty;
#X connect 4 1 21 0 empty;
#X connect 5 0 28 0 empty;
#X connect 5 1 29 0 empty;
#X connect 6 0 30 0 empty;
#X connect 6 1 31 0 empty;
#X connect 7 0 8 0 empty;
#X connect 8 0 24 0 empty;
#X connect 8 1 25 0 empty;
#X connect 9 0 10 0 empty;
#X connect 10 0 22 0 empty;
#X connect 10 1 23 0 empty;
#X connect 11 0 12 0 empty;
#X connect 12 0 26 0 empty;
#X connect 12 1 27 0 empty;
#X connect 13 0 34 0 empty;
#X connect 13 1 35 0 empty;
#X connect 14 0 15 0 empty;
#X connect 15 0 32 0 empty;
#X connect 15 0 33 0 empty;
#X connect 16 0 5 0 empty;
#X connect 17 0 6 0 empty;
#X connect 36 0 53 0 empty;
#X connect 36 0 0 0 empty;
#X connect 37 0 54 0 empty;
#X connect 37 0 0 1 empty;
#X connect 39 0 0 0 empty;
#X connect 40 0 0 1 empty;
#X connect 45 0 38 0 empty;
#X connect 46 0 42 0 empty;
#X connect 47 0 144 0 empty;
#X connect 48 0 45 0 empty;
#X connect 48 0 46 0 empty;
#X connect 48 0 49 0 empty;
#X connect 48 0 50 0 empty;
#X connect 48 0 51 0 empty;
#X connect 49 0 44 0 empty;
#X connect 50 0 43 0 empty;
#X connect 51 0 41 0 empty;
#X connect 52 0 39 1 empty;
#X connect 52 0 40 1 empty;
#X connect 55 0 39 0 empty;
#X connect 56 0 40 0 empty;
#X connect 58 0 62 3 empty;
#X connect 58 0 61 3 empty;
#X connect 58 0 67 3 empty;
#X connect 58 0 66 3 empty;
#X connect 58 0 65 3 empty;
#X connect 58 0 64 3 empty;
#X connect 58 0 63 3 empty;
#X connect 58 0 60 3 empty;
#X connect 59 0 58 0 empty;
#X connect 60 0 79 0 empty;
#X connect 61 0 79 0 empty;
#X connect 62 0 79 0 empty;
#X connect 63 0 79 0 empty;
#X connect 64 0 79 0 empty;
#X connect 65 0 79 0 empty;
#X connect 66 0 79 0 empty;
#X connect 67 0 79 0 empty;
#X connect 68 0 67 2 empty;
#X connect 68 0 66 2 empty;
#X connect 68 0 65 2 empty;
#X connect 68 0 64 2 empty;
#X connect 68 0 63 2 empty;
#X connect 68 0 62 2 empty;
#X connect 68 0 61 2 empty;
#X connect 68 0 60 2 empty;
#X connect 69 0 78 0 empty;
#X connect 70 0 60 1 empty;
#X connect 71 0 61 1 empty;
#X connect 72 0 62 1 empty;
#X connect 73 0 63 1 empty;
#X connect 74 0 64 1 empty;
#X connect 75 0 65 1 empty;
#X connect 76 0 66 1 empty;
#X connect 77 0 67 1 empty;
#X connect 78 0 70 0 empty;
#X connect 78 0 71 0 empty;
#X connect 78 0 72 0 empty;
#X connect 78 0 73 0 empty;
#X connect 78 0 74 0 empty;
#X connect 78 0 75 0 empty;
#X connect 78 0 76 0 empty;
#X connect 78 0 77 0 empty;
#X connect 79 0 81 0 empty;
#X connect 81 0 82 0 empty;
#X connect 82 0 83 0 empty;
#X connect 83 0 84 0 empty;
#X connect 84 0 133 0 empty;
#X connect 84 0 135 0 empty;
#X connect 85 0 89 3 empty;
#X connect 85 0 88 3 empty;
#X connect 85 0 94 3 empty;
#X connect 85 0 93 3 empty;
#X connect 85 0 92 3 empty;
#X connect 85 0 91 3 empty;
#X connect 85 0 90 3 empty;
#X connect 85 0 87 3 empty;
#X connect 86 0 85 0 empty;
#X connect 87 0 106 0 empty;
#X connect 88 0 106 0 empty;
#X connect 89 0 106 0 empty;
#X connect 90 0 106 0 empty;
#X connect 91 0 106 0 empty;
#X connect 92 0 106 0 empty;
#X connect 93 0 106 0 empty;
#X connect 94 0 106 0 empty;
#X connect 95 0 94 2 empty;
#X connect 95 0 93 2 empty;
#X connect 95 0 92 2 empty;
#X connect 95 0 91 2 empty;
#X connect 95 0 90 2 empty;
#X connect 95 0 87 2 empty;
#X connect 95 0 88 2 empty;
#X connect 95 0 89 2 empty;
#X connect 96 0 105 0 empty;
#X connect 97 0 112 1 empty;
#X connect 98 0 113 1 empty;
#X connect 99 0 114 1 empty;
#X connect 100 0 115 1 empty;
#X connect 101 0 116 1 empty;
#X connect 102 0 117 1 empty;
#X connect 103 0 118 1 empty;
#X connect 104 0 119 1 empty;
#X connect 105 0 97 0 empty;
#X connect 105 0 98 0 empty;
#X connect 105 0 99 0 empty;
#X connect 105 0 100 0 empty;
#X connect 105 0 101 0 empty;
#X connect 105 0 102 0 empty;
#X connect 105 0 103 0 empty;
#X connect 105 0 104 0 empty;
#X connect 106 0 107 0 empty;
#X connect 107 0 108 0 empty;
#X connect 108 0 109 0 empty;
#X connect 109 0 110 0 empty;
#X connect 110 0 134 0 empty;
#X connect 110 0 136 0 empty;
#X connect 112 0 87 1 empty;
#X connect 113 0 88 1 empty;
#X connect 114 0 89 1 empty;
#X connect 115 0 90 1 empty;
#X connect 116 0 91 1 empty;
#X connect 117 0 92 1 empty;
#X connect 118 0 93 1 empty;
#X connect 119 0 94 1 empty;
#X connect 120 0 112 0 empty;
#X connect 120 0 113 0 empty;
#X connect 120 0 114 0 empty;
#X connect 120 0 115 0 empty;
#X connect 120 0 116 0 empty;
#X connect 120 0 117 0 empty;
#X connect 120 0 118 0 empty;
#X connect 120 0 119 0 empty;
#X connect 121 0 122 0 empty;
#X connect 122 0 123 0 empty;
#X connect 122 0 126 0 empty;
#X connect 122 0 128 0 empty;
#X connect 122 0 130 0 empty;
#X connect 123 0 124 1 empty;
#X connect 124 0 106 1 empty;
#X connect 125 0 107 1 empty;
#X connect 126 0 125 1 empty;
#X connect 127 0 108 1 empty;
#X connect 128 0 127 1 empty;
#X connect 129 0 109 1 empty;
#X connect 130 0 129 1 empty;
#X connect 131 0 132 0 empty;
#X connect 131 0 136 1 empty;
#X connect 131 0 135 1 empty;
#X connect 132 0 133 1 empty;
#X connect 132 0 134 1 empty;
#X connect 133 0 80 0 empty;
#X connect 134 0 111 0 empty;
#X connect 135 0 111 0 empty;
#X connect 136 0 80 0 empty;
#X connect 137 0 124 0 empty;
#X connect 137 0 125 0 empty;
#X connect 137 0 127 0 empty;
#X connect 137 0 129 0 empty;
#X connect 138 0 139 1 empty;
#X connect 139 0 60 0 empty;
#X connect 139 0 61 0 empty;
#X connect 139 0 62 0 empty;
#X connect 139 0 63 0 empty;
#X connect 139 0 64 0 empty;
#X connect 139 0 65 0 empty;
#X connect 139 0 66 0 empty;
#X connect 139 0 67 0 empty;
#X connect 140 0 139 0 empty;
#X connect 141 0 143 1 empty;
#X connect 142 0 143 0 empty;
#X connect 143 0 87 0 empty;
#X connect 143 0 88 0 empty;
#X connect 143 0 89 0 empty;
#X connect 143 0 90 0 empty;
#X connect 143 0 91 0 empty;
#X connect 143 0 92 0 empty;
#X connect 143 0 93 0 empty;
#X connect 143 0 94 0 empty;
#X connect 144 0 48 0 empty;
