#N canvas 827 239 527 327 12;
#X obj 529 299 out~;
#X obj 79 59 play.file~ Low-Timpani.wav;
#X obj 47 71 bng 25 250 50 0 empty empty empty 17 7 0 10 #e4e4e4 #5a5a5a #5a5a5a;
#X obj 47 122 bng 25 250 50 0 empty empty empty 17 7 0 10 #e4e4e4 #5a5a5a #5a5a5a;
#X obj 79 113 play.file~ High-Timpani.wav;
#X obj 79 333 play.file~ Casio-MT-600-8-Beat-1.wav 0 1;
#X obj 47 233 bng 25 250 50 0 empty empty empty 17 7 0 10 #e4e4e4 #5a5a5a #5a5a5a;
#X obj 79 224 play.file~ Korg-TR-Rack-Standard-Kit-Snare-Drum-2.wav;
#X obj 47 178 bng 25 250 50 0 empty empty empty 17 7 0 10 #e4e4e4 #5a5a5a #5a5a5a;
#X obj 79 169 play.file~ Dry-Kick.wav;
#X obj 47 287 bng 25 250 50 0 empty empty empty 17 7 0 10 #e4e4e4 #5a5a5a #5a5a5a;
#X obj 79 278 play.file~ Closed-Hi-Hat-2.wav;
#X obj 79 503 adc~;
#X obj 47 456 tgl 25 0 empty empty empty 17 7 0 10 #e4e4e4 #5a5a5a #5a5a5a 0 1;
#X obj 47 344 tgl 25 0 empty empty empty 17 7 0 10 #e4e4e4 #5a5a5a #5a5a5a 0 1;
#X obj 47 400 tgl 25 0 empty empty empty 17 7 0 10 #e4e4e4 #5a5a5a #5a5a5a 0 1;
#X obj 79 87 throw~ \$0-L;
#X obj 172 87 throw~ \$0-R;
#X obj 79 140 throw~ \$0-L;
#X obj 173 140 throw~ \$0-R;
#X obj 79 196 throw~ \$0-L;
#X obj 173 196 throw~ \$0-R;
#X obj 79 251 throw~ \$0-L;
#X obj 175 251 throw~ \$0-R;
#X obj 79 305 throw~ \$0-L;
#X obj 175 305 throw~ \$0-R;
#X obj 79 360 throw~ \$0-L;
#X obj 175 360 throw~ \$0-R;
#X obj 79 417 throw~ \$0-L;
#X obj 174 417 throw~ \$0-R;
#X obj 79 474 throw~ \$0-L;
#X obj 173 474 throw~ \$0-R;
#X obj 79 531 throw~ \$0-L;
#X obj 173 531 throw~ \$0-R;
#X obj 519 99 catch~ \$0-L;
#X obj 619 99 catch~ \$0-R;
#X obj 559 259 *~;
#X obj 629 259 *~;
#X obj 659 219 r \$0-wet-s;
#X obj 507 139 s~ \$0-rev-in-L;
#X obj 639 139 s~ \$0-rev-in-R;
#X obj 499 179 r~ \$0-rev-out-L;
#X obj 639 179 r~ \$0-rev-out-R;
#X obj 1000 769 s~ \$0-rev-out-L;
#X obj 1120 769 s~ \$0-rev-out-R;
#X obj 1129 39 r~ \$0-rev-in-R;
#X obj 1019 39 r~ \$0-rev-in-L;
#X text 29 8 Basic FDN lossless prototype \, nothing extra, f 93;
#X obj 827 349 +~;
#X obj 827 378 delwrite~ \$0-d1 500;
#X obj 827 439 delread~ \$0-d1;
#X obj 847 409 r \$0-d1-delay;
#X obj 109 729 s \$0-d1-delay;
#X obj 189 599 loadbang;
#X obj 189 629 bng 25 250 50 0 empty empty empty 17 7 0 10 #191919 #ffffff #ffffff;
#X obj 857 259 r~ \$0-d1-matrix-out;
#X obj 847 479 s~ \$0-d1-matrix-in;
#X obj 857 189 r \$0-d1-in-gain;
#X obj 867 539 r \$0-d1-out-gain;
#X obj 847 319 *~;
#X obj 827 219 *~;
#X obj 877 289 r \$0-d1-matrix-gain;
#X obj 1759 299 r~ \$0-d1-matrix-in;
#X obj 1759 590 s~ \$0-d1-matrix-out;
#X obj 837 509 r~ \$0-d1-matrix-out;
#X obj 839 579 *~;
#X obj 319 729 s \$0-d1-out-gain;
#X msg 319 699 1;
#X obj 439 729 s \$0-d1-matrix-gain;
#X msg 209 699 1;
#X obj 209 729 s \$0-d1-in-gain;
#X obj 1250 749 oscope~ 130 130 256 3 128 -1 1 0 0 0 0 255 255 255 25 25 25 105 105 105 0 empty;
#X obj 502 399 hsl 128 17 0 1 0 0 \$0-wet-s empty Wet -2 -12 0 15 #191919 #ffffff #ffffff 0 1;
#X obj 1037 349 +~;
#X obj 1057 319 *~;
#X obj 1037 219 *~;
#X obj 1047 579 *~;
#X obj 1067 189 r \$0-d2-in-gain;
#X obj 1067 259 r~ \$0-d2-matrix-out;
#X obj 1087 289 r \$0-d2-matrix-gain;
#X obj 1037 378 delwrite~ \$0-d2 500;
#X obj 1057 409 r \$0-d2-delay;
#X obj 1037 439 delread~ \$0-d2;
#X obj 1057 479 s~ \$0-d2-matrix-in;
#X obj 1047 509 r~ \$0-d2-matrix-out;
#X obj 1077 539 r \$0-d2-out-gain;
#X obj 1899 299 r~ \$0-d2-matrix-in;
#X obj 1899 590 s~ \$0-d2-matrix-out;
#X msg 319 759 1;
#X msg 209 759 1;
#X msg 319 819 1;
#X msg 209 819 1;
#X msg 319 879 1;
#X msg 209 879 1;
#X obj 109 789 s \$0-d2-delay;
#X obj 209 789 s \$0-d2-in-gain;
#X obj 319 789 s \$0-d2-out-gain;
#X obj 439 789 s \$0-d2-matrix-gain;
#X obj 109 849 s \$0-d3-delay;
#X obj 209 849 s \$0-d3-in-gain;
#X obj 319 849 s \$0-d3-out-gain;
#X obj 439 849 s \$0-d3-matrix-gain;
#X obj 109 909 s \$0-d4-delay;
#X obj 209 909 s \$0-d4-in-gain;
#X obj 319 909 s \$0-d4-out-gain;
#X obj 439 909 s \$0-d4-matrix-gain;
#X obj 1247 349 +~;
#X obj 1267 319 *~;
#X obj 1247 219 *~;
#X obj 1257 579 *~;
#X obj 1287 539 r \$0-d2-out-gain;
#X obj 1449 349 +~;
#X obj 1469 319 *~;
#X obj 1449 219 *~;
#X obj 1459 579 *~;
#X obj 1277 189 r \$0-d3-in-gain;
#X obj 1277 259 r~ \$0-d3-matrix-out;
#X obj 1297 289 r \$0-d3-matrix-gain;
#X obj 1247 378 delwrite~ \$0-d3 500;
#X obj 1267 409 r \$0-d3-delay;
#X obj 1247 439 delread~ \$0-d3;
#X obj 1267 479 s~ \$0-d3-matrix-in;
#X obj 1257 509 r~ \$0-d3-matrix-out;
#X obj 1479 189 r \$0-d4-in-gain;
#X obj 1479 259 r~ \$0-d4-matrix-out;
#X obj 1499 289 r \$0-d4-matrix-gain;
#X obj 1449 378 delwrite~ \$0-d4 500;
#X obj 1469 409 r \$0-d4-delay;
#X obj 1449 439 delread~ \$0-d4;
#X obj 1469 479 s~ \$0-d4-matrix-in;
#X obj 1459 509 r~ \$0-d4-matrix-out;
#X obj 1489 539 r \$0-d4-out-gain;
#X obj 2039 301 r~ \$0-d3-matrix-in;
#X obj 2179 299 r~ \$0-d4-matrix-in;
#X obj 2039 590 s~ \$0-d3-matrix-out;
#X obj 2179 590 s~ \$0-d4-matrix-out;
#X obj 1939 339 *~ -1;
#X obj 2079 339 *~ -1;
#X obj 2219 339 *~ -1;
#X msg 439 759 0.1;
#X msg 439 819 0.1;
#X msg 439 879 0.1;
#X msg 439 699 0.1;
#X obj 502 649 hsl 136 21 0 0.5 0 0 empty empty empty -2 -8 0 10 #191919 #ffffff #ffffff 0 1;
#X floatatom 599 689 9 0 0 0 empty - - 16;
#X text 1979 258 Hadamard matrix;
#N canvas 0 50 450 300 random_sine 1;
#X obj 118 296 *~;
#X obj 101 234 mtof;
#X obj 101 129 bng 25 250 50 0 empty empty empty 17 7 0 10 #e4e4e4 #5a5a5a #5a5a5a;
#X obj 101 178 drunk 24 8;
#X obj 118 357 outlet~;
#X obj 101 75 inlet;
#X obj 118 326 *~ 0.5;
#X obj 101 102 metro 1000;
#X obj 101 261 osc~;
#X obj 101 206 + 60;
#X obj 179 219 line~;
#X msg 202 184 1 \, 0 400;
#X connect 0 0 6 0 empty;
#X connect 1 0 8 0 empty;
#X connect 2 0 3 0 empty;
#X connect 2 0 11 0 empty;
#X connect 3 0 9 0 empty;
#X connect 5 0 7 0 empty;
#X connect 6 0 4 0 empty;
#X connect 7 0 2 0 empty;
#X connect 8 0 0 0 empty;
#X connect 9 0 1 0 empty;
#X connect 10 0 0 1 empty;
#X connect 11 0 10 0 empty;
#X restore 79 444 pd random_sine;
#X f 25;
#X msg 109 699 60;
#X msg 109 759 71.9345;
#X msg 109 819 86.7545;
#X msg 109 879 95.945;
#X obj 79 390 play.file~ Ensoniq-ZR-76-06-BreakBt-90.wav 0 1;
#X obj 338 542 throw~ \$0-L;
#X obj 432 542 throw~ \$0-R;
#X obj 402 510 sig~;
#X msg 449 488 0;
#X obj 349 429 bng 25 250 50 0 empty empty empty 17 7 0 10 #191919 #ffffff #ffffff;
#X msg 399 469 1;
#X obj 449 459 delay 100;
#X connect 1 0 16 0 empty;
#X connect 1 1 17 0 empty;
#X connect 2 0 1 0 empty;
#X connect 3 0 4 0 empty;
#X connect 4 0 18 0 empty;
#X connect 4 1 19 0 empty;
#X connect 5 0 26 0 empty;
#X connect 5 1 27 0 empty;
#X connect 6 0 7 0 empty;
#X connect 7 0 22 0 empty;
#X connect 7 1 23 0 empty;
#X connect 8 0 9 0 empty;
#X connect 9 0 20 0 empty;
#X connect 9 1 21 0 empty;
#X connect 10 0 11 0 empty;
#X connect 11 0 24 0 empty;
#X connect 11 1 25 0 empty;
#X connect 12 0 32 0 empty;
#X connect 12 1 33 0 empty;
#X connect 13 0 146 0 empty;
#X connect 14 0 5 0 empty;
#X connect 15 0 151 0 empty;
#X connect 34 0 39 0 empty;
#X connect 34 0 0 0 empty;
#X connect 35 0 40 0 empty;
#X connect 35 0 0 1 empty;
#X connect 36 0 0 0 empty;
#X connect 37 0 0 1 empty;
#X connect 38 0 36 1 empty;
#X connect 38 0 37 1 empty;
#X connect 41 0 36 0 empty;
#X connect 42 0 37 0 empty;
#X connect 45 0 75 0 empty;
#X connect 46 0 60 0 empty;
#X connect 48 0 49 0 empty;
#X connect 50 0 56 0 empty;
#X connect 51 0 50 0 empty;
#X connect 53 0 54 0 empty;
#X connect 54 0 147 0 empty;
#X connect 54 0 67 0 empty;
#X connect 54 0 69 0 empty;
#X connect 54 0 148 0 empty;
#X connect 54 0 89 0 empty;
#X connect 54 0 88 0 empty;
#X connect 54 0 149 0 empty;
#X connect 54 0 91 0 empty;
#X connect 54 0 90 0 empty;
#X connect 54 0 150 0 empty;
#X connect 54 0 93 0 empty;
#X connect 54 0 92 0 empty;
#X connect 54 0 141 0 empty;
#X connect 54 0 140 0 empty;
#X connect 54 0 139 0 empty;
#X connect 54 0 142 0 empty;
#X connect 55 0 59 0 empty;
#X connect 57 0 60 1 empty;
#X connect 58 0 65 1 empty;
#X connect 59 0 48 1 empty;
#X connect 60 0 48 0 empty;
#X connect 61 0 59 1 empty;
#X connect 62 0 63 0 empty;
#X connect 62 0 87 0 empty;
#X connect 62 0 134 0 empty;
#X connect 62 0 135 0 empty;
#X connect 64 0 65 0 empty;
#X connect 65 0 43 0 empty;
#X connect 65 0 71 0 empty;
#X connect 67 0 66 0 empty;
#X connect 69 0 70 0 empty;
#X connect 73 0 80 0 empty;
#X connect 74 0 73 1 empty;
#X connect 75 0 73 0 empty;
#X connect 76 0 44 0 empty;
#X connect 76 0 71 0 empty;
#X connect 77 0 75 1 empty;
#X connect 78 0 74 0 empty;
#X connect 79 0 74 1 empty;
#X connect 81 0 82 0 empty;
#X connect 82 0 83 0 empty;
#X connect 84 0 76 0 empty;
#X connect 85 0 76 1 empty;
#X connect 86 0 136 0 empty;
#X connect 86 0 63 0 empty;
#X connect 86 0 134 0 empty;
#X connect 88 0 96 0 empty;
#X connect 89 0 95 0 empty;
#X connect 90 0 100 0 empty;
#X connect 91 0 99 0 empty;
#X connect 92 0 104 0 empty;
#X connect 93 0 103 0 empty;
#X connect 106 0 118 0 empty;
#X connect 107 0 106 1 empty;
#X connect 108 0 106 0 empty;
#X connect 110 0 109 1 empty;
#X connect 111 0 126 0 empty;
#X connect 112 0 111 1 empty;
#X connect 113 0 111 0 empty;
#X connect 115 0 108 1 empty;
#X connect 116 0 107 0 empty;
#X connect 117 0 107 1 empty;
#X connect 119 0 120 0 empty;
#X connect 120 0 121 0 empty;
#X connect 122 0 109 0 empty;
#X connect 123 0 113 1 empty;
#X connect 124 0 112 0 empty;
#X connect 125 0 112 1 empty;
#X connect 127 0 128 0 empty;
#X connect 128 0 129 0 empty;
#X connect 130 0 114 0 empty;
#X connect 131 0 114 1 empty;
#X connect 132 0 137 0 empty;
#X connect 132 0 63 0 empty;
#X connect 132 0 87 0 empty;
#X connect 133 0 138 0 empty;
#X connect 133 0 63 0 empty;
#X connect 133 0 135 0 empty;
#X connect 136 0 87 0 empty;
#X connect 136 0 135 0 empty;
#X connect 137 0 134 0 empty;
#X connect 137 0 135 0 empty;
#X connect 138 0 87 0 empty;
#X connect 138 0 134 0 empty;
#X connect 139 0 97 0 empty;
#X connect 140 0 101 0 empty;
#X connect 141 0 105 0 empty;
#X connect 142 0 68 0 empty;
#X connect 143 0 144 0 empty;
#X connect 143 0 68 0 empty;
#X connect 143 0 97 0 empty;
#X connect 143 0 101 0 empty;
#X connect 143 0 105 0 empty;
#X connect 146 0 30 0 empty;
#X connect 146 0 31 0 empty;
#X connect 147 0 52 0 empty;
#X connect 148 0 94 0 empty;
#X connect 149 0 98 0 empty;
#X connect 150 0 102 0 empty;
#X connect 151 0 28 0 empty;
#X connect 154 0 152 0 empty;
#X connect 154 0 153 0 empty;
#X connect 155 0 154 0 empty;
#X connect 156 0 157 0 empty;
#X connect 156 0 158 0 empty;
#X connect 157 0 154 0 empty;
#X connect 158 0 155 0 empty;
