#N canvas 827 239 527 327 12;
#X text 36 20 This patch is meant to provide helper tooling for prototyping and testing. The actual reverb implementation should be done in a subpatch.;
#X obj 651 119 out~;
#X obj 107 80 play.file~ Low-Timpani.wav;
#X obj 75 92 bng 25 250 50 0 empty empty empty 17 7 0 10 #e4e4e4 #5a5a5a #5a5a5a;
#X obj 75 143 bng 25 250 50 0 empty empty empty 17 7 0 10 #e4e4e4 #5a5a5a #5a5a5a;
#X obj 107 134 play.file~ High-Timpani.wav;
#X obj 107 108 throw~ L;
#X obj 181 108 throw~ R;
#X obj 107 161 throw~ L;
#X obj 183 161 throw~ R;
#X obj 651 92 catch~ L;
#X obj 720 92 catch~ R;
#X obj 107 381 throw~ L;
#X obj 183 381 throw~ R;
#X msg 54 354 start;
#X obj 107 354 play.file~ Casio-MT-600-8-Beat-1.wav 0 1;
#X msg 54 381 stop;
#X obj 107 438 throw~ L;
#X obj 183 438 throw~ R;
#X msg 54 411 start;
#X msg 54 438 stop;
#X obj 107 411 play.file~ Ensoniq-ZR-76-06-BreakBt-90.wav 0 1;
#X obj 75 254 bng 25 250 50 0 empty empty empty 17 7 0 10 #e4e4e4 #5a5a5a #5a5a5a;
#X obj 107 272 throw~ L;
#X obj 183 272 throw~ R;
#X obj 107 245 play.file~ Korg-TR-Rack-Standard-Kit-Snare-Drum-2.wav;
#X obj 75 199 bng 25 250 50 0 empty empty empty 17 7 0 10 #e4e4e4 #5a5a5a #5a5a5a;
#X obj 107 217 throw~ L;
#X obj 183 217 throw~ R;
#X obj 107 190 play.file~ Dry-Kick.wav;
#X obj 75 308 bng 25 250 50 0 empty empty empty 17 7 0 10 #e4e4e4 #5a5a5a #5a5a5a;
#X obj 107 326 throw~ L;
#X obj 183 326 throw~ R;
#X obj 107 299 play.file~ Closed-Hi-Hat-2.wav;
#X obj 107 467 adc~;
#X obj 107 495 throw~ L;
#X obj 183 495 throw~ R;
#X connect 2 0 6 0 empty;
#X connect 2 1 7 0 empty;
#X connect 3 0 2 0 empty;
#X connect 4 0 5 0 empty;
#X connect 5 0 8 0 empty;
#X connect 5 1 9 0 empty;
#X connect 10 0 1 0 empty;
#X connect 11 0 1 1 empty;
#X connect 14 0 15 0 empty;
#X connect 15 0 12 0 empty;
#X connect 15 1 13 0 empty;
#X connect 16 0 15 0 empty;
#X connect 19 0 21 0 empty;
#X connect 20 0 21 0 empty;
#X connect 21 0 17 0 empty;
#X connect 21 1 18 0 empty;
#X connect 22 0 25 0 empty;
#X connect 25 0 23 0 empty;
#X connect 25 1 24 0 empty;
#X connect 26 0 29 0 empty;
#X connect 29 0 27 0 empty;
#X connect 29 1 28 0 empty;
#X connect 30 0 33 0 empty;
#X connect 33 0 31 0 empty;
#X connect 33 1 32 0 empty;
#X connect 34 0 35 0 empty;
#X connect 34 1 36 0 empty;
