#N canvas 827 239 527 327 12;
#X text 36 20 This patch is meant to provide helper tooling for prototyping and testing. The actual reverb implementation should be done in a subpatch.;
#X obj 651 119 out~;
#X obj 107 80 play.file~ Low-Timpani.wav;
#X obj 75 92 bng 25 250 50 0 empty empty empty 17 7 0 10 #e4e4e4 #5a5a5a #5a5a5a;
#X obj 75 143 bng 25 250 50 0 empty empty empty 17 7 0 10 #e4e4e4 #5a5a5a #5a5a5a;
#X obj 107 134 play.file~ High-Timpani.wav;
#X obj 107 108 throw~ L;
#X obj 181 108 throw~ R;
#X obj 107 161 throw~ L;
#X obj 183 161 throw~ R;
#X obj 651 92 catch~ L;
#X obj 720 92 catch~ R;
#X obj 107 381 throw~ L;
#X obj 183 381 throw~ R;
#X obj 107 354 play.file~ Casio-MT-600-8-Beat-1.wav 0 1;
#X obj 107 438 throw~ L;
#X obj 183 438 throw~ R;
#X obj 107 411 play.file~ Ensoniq-ZR-76-06-BreakBt-90.wav 0 1;
#X obj 75 254 bng 25 250 50 0 empty empty empty 17 7 0 10 #e4e4e4 #5a5a5a #5a5a5a;
#X obj 107 272 throw~ L;
#X obj 183 272 throw~ R;
#X obj 107 245 play.file~ Korg-TR-Rack-Standard-Kit-Snare-Drum-2.wav;
#X obj 75 199 bng 25 250 50 0 empty empty empty 17 7 0 10 #e4e4e4 #5a5a5a #5a5a5a;
#X obj 107 217 throw~ L;
#X obj 183 217 throw~ R;
#X obj 107 190 play.file~ Dry-Kick.wav;
#X obj 75 308 bng 25 250 50 0 empty empty empty 17 7 0 10 #e4e4e4 #5a5a5a #5a5a5a;
#X obj 107 326 throw~ L;
#X obj 183 326 throw~ R;
#X obj 107 299 play.file~ Closed-Hi-Hat-2.wav;
#X obj 107 524 adc~;
#X obj 107 552 throw~ L;
#X obj 183 552 throw~ R;
#X obj 107 495 throw~ L;
#X obj 183 495 throw~ R;
#X obj 75 477 tgl 25 0 empty empty empty 17 7 0 10 #e4e4e4 #5a5a5a #5a5a5a 0 1;
#N canvas 0 50 450 300 random_saw 1;
#X obj 169 261 asr~ 10 400;
#X obj 118 296 *~;
#X obj 101 234 mtof;
#X obj 101 129 bng 25 250 50 0 empty empty empty 17 7 0 10 #e4e4e4 #5a5a5a #5a5a5a;
#X obj 169 234 sig~;
#X obj 198 196 tgl 25 0 empty empty empty 17 7 0 10 #e4e4e4 #5a5a5a #5a5a5a 0 1;
#X obj 198 155 delay 100;
#X obj 101 178 drunk 24 8;
#X obj 118 357 outlet~;
#X obj 101 75 inlet;
#X obj 101 102 metro 273;
#X obj 118 326 *~ 0.5;
#X obj 101 261 bl.saw~;
#X obj 101 206 + 60;
#X connect 0 0 1 1 empty;
#X connect 1 0 11 0 empty;
#X connect 2 0 12 0 empty;
#X connect 3 0 5 0 empty;
#X connect 3 0 6 0 empty;
#X connect 3 0 7 0 empty;
#X connect 4 0 0 0 empty;
#X connect 5 0 4 0 empty;
#X connect 6 0 5 0 empty;
#X connect 7 0 13 0 empty;
#X connect 9 0 10 0 empty;
#X connect 10 0 3 0 empty;
#X connect 11 0 8 0 empty;
#X connect 12 0 1 0 empty;
#X connect 13 0 2 0 empty;
#X restore 107 467 pd random_saw;
#X f 15;
#X obj 75 365 tgl 25 0 empty empty empty 17 7 0 10 #e4e4e4 #5a5a5a #5a5a5a 0 1;
#X obj 75 421 tgl 25 0 empty empty empty 17 7 0 10 #e4e4e4 #5a5a5a #5a5a5a 0 1;
#X connect 2 0 6 0 empty;
#X connect 2 1 7 0 empty;
#X connect 3 0 2 0 empty;
#X connect 4 0 5 0 empty;
#X connect 5 0 8 0 empty;
#X connect 5 1 9 0 empty;
#X connect 10 0 1 0 empty;
#X connect 11 0 1 1 empty;
#X connect 14 0 12 0 empty;
#X connect 14 1 13 0 empty;
#X connect 17 0 15 0 empty;
#X connect 17 1 16 0 empty;
#X connect 18 0 21 0 empty;
#X connect 21 0 19 0 empty;
#X connect 21 1 20 0 empty;
#X connect 22 0 25 0 empty;
#X connect 25 0 23 0 empty;
#X connect 25 1 24 0 empty;
#X connect 26 0 29 0 empty;
#X connect 29 0 27 0 empty;
#X connect 29 1 28 0 empty;
#X connect 30 0 31 0 empty;
#X connect 30 1 32 0 empty;
#X connect 35 0 36 0 empty;
#X connect 36 0 33 0 empty;
#X connect 36 0 34 0 empty;
#X connect 37 0 14 0 empty;
#X connect 38 0 17 0 empty;
