#N canvas 827 239 527 327 12;
#X text 36 20 This patch is meant to provide helper tooling for prototyping and testing. The actual reverb implementation should be done in a subpatch.;
#X obj 52 318 out~;
#X obj 84 80 play.file~ Low-Timpani.wav;
#X obj 52 92 bng 25 250 50 0 empty empty empty 17 7 0 10 #e4e4e4 #5a5a5a #5a5a5a;
#X obj 52 143 bng 25 250 50 0 empty empty empty 17 7 0 10 #e4e4e4 #5a5a5a #5a5a5a;
#X obj 84 134 play.file~ High-Timpani.wav;
#X obj 84 108 throw~ L;
#X obj 158 108 throw~ R;
#X obj 84 161 throw~ L;
#X obj 160 161 throw~ R;
#X obj 52 291 catch~ L;
#X obj 121 291 catch~ R;
#X connect 2 0 6 0 empty;
#X connect 2 1 7 0 empty;
#X connect 3 0 2 0 empty;
#X connect 4 0 5 0 empty;
#X connect 5 0 8 0 empty;
#X connect 5 1 9 0 empty;
#X connect 10 0 1 0 empty;
#X connect 11 0 1 1 empty;
