#N canvas 827 239 527 327 12;
#X obj 749 129 inlet~;
#X obj 669 329 outlet~;
#X obj 749 229 delwrite~ \$0-delay-1 \$1;
#X obj 749 189 +~;
#X obj 899 129 inlet feedback_gain;
#X obj 1039 129 inlet frequency_cutoff;
#X obj 809 129 inlet delay;
#X obj 749 299 lop~;
#X obj 749 259 delread~ \$0-delay-1;
#X obj 919 239 *~;
#X connect 0 0 3 0 empty;
#X connect 3 0 2 0 empty;
#X connect 3 0 1 0 empty;
#X connect 4 0 9 1 empty;
#X connect 5 0 7 1 empty;
#X connect 6 0 8 0 empty;
#X connect 7 0 9 0 empty;
#X connect 8 0 7 0 empty;
#X connect 9 0 3 1 empty;
